{"title":"3 10 to Yuma(1957)MP-4[DaScubaDude]","uid":12648492,"size":934551151,"categoryP":"video","categoryS":"movies","magnet":"?xt=urn:btih:be346b7e9af7c70193776b2dfa3017af4f01e267&amp;dn=3+10+to+Yuma%281957%29MP-4%5BDaScubaDude%5D&amp;tr=udp%3A%2F%2Ftracker.leechers-paradise.org%3A6969&amp;tr=udp%3A%2F%2Fzer0day.ch%3A1337&amp;tr=udp%3A%2F%2Fopen.demonii.com%3A1337&amp;tr=udp%3A%2F%2Ftracker.coppersurfer.tk%3A6969&amp;tr=udp%3A%2F%2Fexodus.desync.com%3A6969","seeders":0,"leechers":0,"uploader":"dascuba","files":1,"time":1446089124,"description":"\nContact the Filmmakers on IMDbPro »\r\n3:10 to Yuma (1957)\r\nApproved  |  92 min  |  Drama, Thriller, Western  |  1957 (UK)\r\n7.6 Your rating:   -/10   Ratings: 7.6/10 from 13,849 users   \r\nReviews: 107 user | 76 critic\r\nBroke small-time rancher Dan Evans is hired by the stagecoach line to put big-time captured outlaw leader Ben Wade on the 3:10 train to Yuma but Wade's gang tries to free him.\r\n\r\nDirector: Delmer Daves\r\nWriters: Halsted Welles (screenplay), Elmore Leonard (story)\r\nStars: Glenn Ford, Van Heflin, Felicia Farr \r\n\r\nGeneral\r\nComplete name                            : C:3 10 to Yuma(1957)DVD_VIDEO_Title1.mp4\r\nFormat                                   : MPEG-4\r\nFormat profile                           : Base Media\r\nCodec ID                                 : isom\r\nFile size                                : 891 MiB\r\nDuration                                 : 1h 32mn\r\nOverall bit rate                         : 1 353 Kbps\r\nMovie name                               : DVD_VIDEO\r\nGenre                                    : Western\r\nWriting application                      : Lavf54.6.100\r\n\r\nVideo\r\nID                                       : 1\r\nFormat                                   : AVC\r\nFormat/Info                              : Advanced Video Codec\r\nFormat profile                           :   \r\nFormat settings, CABAC                   : No\r\nFormat settings, ReFrames                : 6 frames\r\nCodec ID                                 : avc1\r\nCodec ID/Info                            : Advanced Video Coding\r\nDuration                                 : 1h 32mn\r\nBit rate                                 : 1 209 Kbps\r\nWidth                                    : 720 pixels\r\nHeight                                   : 404 pixels\r\nDisplay aspect ratio                     : 16:9\r\nFrame rate mode                          : Constant\r\nFrame rate                               : 29.970 fps\r\nColor space                              : YUV\r\nChroma subsampling                       : 4:2:0\r\nBit depth                                : 8 bits\r\nScan type                                : Progressive\r\nBits/(Pixel*Frame)                       : 0.139\r\nStream size                              : 796 MiB (89%)\r\n\r\nAudio\r\nID                                       : 2\r\nFormat                                   : AAC\r\nFormat/Info                              : Advanced Audio Codec\r\nFormat profile                           : LC\r\nCodec ID                                 : 40\r\nDuration                                 : 1h 32mn\r\nBit rate mode                            : Constant\r\nBit rate                                 : 137 Kbps\r\nChannel(s)                               : 2 channels\r\nChannel positions                        : Front: L R\r\nSampling rate                            : 44.1 KHz\r\nCompression mode                         : Lossy\r\nStream size                              : 90.3 MiB (10%)","torrent":{"xt":"urn:btih:be346b7e9af7c70193776b2dfa3017af4f01e267","amp;dn":"3+10+to+Yuma%281957%29MP-4%5BDaScubaDude%5D","amp;tr":["udp%3A%2F%2Ftracker.leechers-paradise.org%3A6969","udp%3A%2F%2Fzer0day.ch%3A1337","udp%3A%2F%2Fopen.demonii.com%3A1337","udp%3A%2F%2Ftracker.coppersurfer.tk%3A6969","udp%3A%2F%2Fexodus.desync.com%3A6969"],"infoHash":"be346b7e9af7c70193776b2dfa3017af4f01e267","infoHashBuffer":{"type":"Buffer","data":[190,52,107,126,154,247,199,1,147,119,107,45,250,48,23,175,79,1,226,103]},"announce":[],"urlList":[]}}